<svg width="279" height="63" viewBox="0 0 279 63" fill="none" xmlns="http://www.w3.org/2000/svg">
<path d="M51.7751 0.236808L1.55781 18.905C1.24542 19.0211 1.32869 19.4841 1.66196 19.4841H21.6551C21.807 19.4841 21.9348 19.5981 21.9521 19.749L26.7457 61.6439C26.7809 61.9515 27.203 62.0093 27.3196 61.7225L52.1562 0.629566C52.2542 0.388612 52.0189 0.146175 51.7751 0.236808Z" fill="#299288"/>
<path d="M51.7697 0.237349L14.477 14.1009H30.3421V53.9596L52.1506 0.630679C52.2491 0.389656 52.0138 0.146614 51.7697 0.237349Z" fill="#157E74"/>
<path d="M45.8425 3.07665L22.6355 11.7038H32.6359V36.8282L46.2614 3.50931C46.3698 3.24419 46.1109 2.97684 45.8425 3.07665Z" fill="#00564C"/>
<path d="M109.988 31.0248C109.988 33.8423 109.424 36.5072 108.295 39.0196C107.185 41.5321 105.578 43.7394 103.473 45.6417C101.292 47.5978 98.8335 49.0962 96.0975 50.1371C93.3614 51.178 90.5296 51.6984 87.6022 51.6984C85.0384 51.6984 82.5223 51.2946 80.0541 50.487C77.6051 49.6615 75.3569 48.4861 73.3096 46.9607C70.6692 44.9866 68.6411 42.6268 67.2252 39.881C65.8285 37.1353 65.1301 34.1832 65.1301 31.0248C65.1301 28.1893 65.685 25.5333 66.7947 23.0568C67.9045 20.5623 69.5308 18.346 71.6737 16.4079C73.7784 14.4877 76.2179 12.9981 78.9922 11.9393C81.7857 10.8805 84.6557 10.3511 87.6022 10.3511C90.5296 10.3511 93.371 10.8805 96.1262 11.9393C98.9005 12.9981 101.35 14.4877 103.473 16.4079C105.597 18.346 107.214 20.5623 108.324 23.0568C109.433 25.5513 109.988 28.2073 109.988 31.0248ZM87.6022 44.188C91.4098 44.188 94.5477 42.9408 97.0159 40.4463C99.5032 37.9339 100.747 34.7934 100.747 31.0248C100.747 27.292 99.4936 24.1515 96.9872 21.6032C94.4807 19.0549 91.3524 17.7807 87.6022 17.7807C83.7947 17.7807 80.6377 19.0549 78.1312 21.6032C75.6248 24.1336 74.3715 27.2741 74.3715 31.0248C74.3715 34.8293 75.6056 37.9788 78.0738 40.4733C80.542 42.9498 83.7182 44.188 87.6022 44.188Z" fill="#1E1E1E"/>
<path d="M112.762 50.6486V24.2412H120.769V28.3867C122.242 26.6639 123.821 25.3987 125.505 24.5912C127.208 23.7657 129.092 23.3529 131.159 23.3529C133.34 23.3529 135.167 23.7029 136.64 24.4027C138.133 25.0847 139.309 26.1345 140.17 27.5522C140.591 28.288 140.888 29.1225 141.06 30.0557C141.251 30.9709 141.347 32.4156 141.347 34.3896V50.6486H133.168V37.5929C133.168 34.3447 132.766 32.2002 131.962 31.1594C131.159 30.1185 129.781 29.5981 127.829 29.5981C126.7 29.5981 125.658 29.8224 124.701 30.271C123.764 30.7017 122.979 31.3209 122.348 32.1284C121.85 32.7565 121.487 33.4744 121.257 34.2819C121.047 35.0895 120.941 36.3188 120.941 37.9698V50.6486H112.762Z" fill="#1E1E1E"/>
<path d="M164.383 34.7126C164.153 33.0437 163.503 31.7875 162.431 30.944C161.379 30.0826 159.934 29.6519 158.098 29.6519C156.261 29.6519 154.787 30.0826 153.678 30.944C152.587 31.7875 151.889 33.0437 151.583 34.7126H164.383ZM172.476 39.3427H151.324C151.65 41.2449 152.386 42.6716 153.534 43.6228C154.682 44.5559 156.242 45.0225 158.212 45.0225C159.705 45.0225 160.987 44.7533 162.058 44.215C163.149 43.6766 164.058 42.8601 164.785 41.7654L171.386 44.861C169.855 47.176 167.999 48.8988 165.818 50.0294C163.637 51.1421 161.044 51.6984 158.04 51.6984C153.486 51.6984 149.88 50.4242 147.22 47.8759C144.561 45.3276 143.231 41.9 143.231 37.5929C143.231 33.4475 144.618 30.0377 147.392 27.3638C150.186 24.6899 153.754 23.3529 158.098 23.3529C162.575 23.3529 166.114 24.6091 168.717 27.1215C171.319 29.616 172.62 33.0257 172.62 37.3507C172.62 37.584 172.61 37.8442 172.591 38.1313C172.572 38.4005 172.534 38.8043 172.476 39.3427Z" fill="#1E1E1E"/>
<path d="M197.453 38.4543C197.453 35.7086 196.64 33.5013 195.013 31.8323C193.387 30.1454 191.244 29.302 188.585 29.302C185.925 29.302 183.849 30.0647 182.357 31.5901C180.864 33.1155 180.118 35.2241 180.118 37.916C180.118 40.9488 180.874 43.3266 182.385 45.0495C183.897 46.7543 185.982 47.6067 188.642 47.6067C191.397 47.6067 193.55 46.7992 195.099 45.184C196.668 43.5689 197.453 41.3257 197.453 38.4543ZM201.815 8.92444V50.6486H197.453V46.18C196.42 47.9567 195.08 49.3206 193.435 50.2717C191.789 51.2228 189.953 51.6984 187.924 51.6984C184.155 51.6984 181.113 50.487 178.798 48.0644C176.502 45.6237 175.354 42.4024 175.354 38.4005C175.354 34.3627 176.483 31.1414 178.74 28.7367C180.998 26.3319 184.002 25.1295 187.752 25.1295C189.933 25.1295 191.828 25.5961 193.435 26.5293C195.042 27.4446 196.343 28.8174 197.338 30.6479V8.92444H201.815Z" fill="#1E1E1E"/>
<path d="M226.099 35.5471C225.946 33.3757 225.171 31.7067 223.774 30.5402C222.397 29.3558 220.502 28.7636 218.092 28.7636C215.91 28.7636 214.093 29.3827 212.639 30.621C211.184 31.8413 210.343 33.4833 210.113 35.5471H226.099ZM230.92 38.9658H210.113V39.3427C210.113 41.9807 210.917 44.1163 212.524 45.7493C214.131 47.3645 216.226 48.172 218.809 48.172C220.569 48.172 222.157 47.7324 223.573 46.853C224.989 45.9557 226.242 44.6098 227.333 42.8152L230.748 44.9687C229.428 47.194 227.744 48.8719 225.697 50.0025C223.65 51.1331 221.277 51.6984 218.579 51.6984C214.581 51.6984 211.347 50.4601 208.879 47.9836C206.411 45.5071 205.177 42.2589 205.177 38.239C205.177 34.3806 206.401 31.2222 208.85 28.7636C211.299 26.305 214.447 25.0757 218.292 25.0757C222.177 25.0757 225.247 26.2422 227.505 28.5752C229.782 30.9081 230.92 34.0935 230.92 38.1313V38.9658Z" fill="#1E1E1E"/>
<path d="M231.412 46.5031L235.258 44.0804C235.985 45.3904 236.903 46.3774 238.013 47.0414C239.123 47.6875 240.433 48.0105 241.945 48.0105C243.418 48.0105 244.604 47.6695 245.504 46.9876C246.422 46.3057 246.881 45.4084 246.881 44.2957C246.881 43.4343 246.565 42.7165 245.934 42.1422C245.322 41.568 244.26 41.0386 242.748 40.554C242.595 40.5002 242.347 40.4194 242.002 40.3117C235.612 38.248 232.416 35.6638 232.416 32.5591C232.416 30.3697 233.277 28.5841 234.999 27.2023C236.721 25.8205 238.96 25.1295 241.715 25.1295C243.992 25.1295 245.944 25.5602 247.57 26.4216C249.196 27.2651 250.363 28.4675 251.071 30.0288L247.426 32.1284C246.891 30.9978 246.097 30.1275 245.044 29.5173C244.011 28.9072 242.806 28.6021 241.428 28.6021C240.108 28.6021 239.027 28.952 238.185 29.6519C237.362 30.3338 236.951 31.2132 236.951 32.2899C236.951 33.7974 238.692 35.0626 242.174 36.0855C242.825 36.2829 243.341 36.4354 243.724 36.5431C246.575 37.4045 248.555 38.3915 249.665 39.5042C250.794 40.5989 251.358 42.0525 251.358 43.865C251.358 46.198 250.469 48.0913 248.689 49.5449C246.929 50.9806 244.623 51.6984 241.773 51.6984C239.323 51.6984 237.238 51.2677 235.516 50.4063C233.813 49.5449 232.445 48.2438 231.412 46.5031Z" fill="#1E1E1E"/>
<path d="M254.662 50.6486V8.92444H259.168V37.1892L271.825 26.0179H277.823L264.707 37.2968L279 50.6486H272.715L259.168 37.6468V50.6486H254.662Z" fill="#1E1E1E"/>
</svg>
