<svg width="16" height="20" viewBox="0 0 16 20" fill="none" xmlns="http://www.w3.org/2000/svg">
<path d="M2.47033 15.9514H2.4628C1.58061 15.9514 0.998022 15.2286 1.00001 14.477M2.47033 15.9514H13.5359M2.47033 15.9514C1.58631 15.9514 1.00198 15.2296 1.00001 14.477M13.5359 15.9514H13.5435C14.4257 15.9514 15.0082 15.2286 15.0063 14.4769M13.5359 15.9514C14.42 15.9514 15.0043 15.2296 15.0063 14.4769M13.2934 9.53226L13.492 11.244C13.5493 11.738 13.706 12.2115 13.9488 12.6377M2.71286 9.53226L2.51426 11.244C2.45694 11.738 2.30028 12.2115 2.05743 12.6376M13.9488 12.6377C13.7068 12.2048 13.5538 11.7239 13.5033 11.2233L13.1198 7.42542C12.8544 4.79719 10.642 2.79688 8.00038 2.79688M13.9488 12.6377C14.1152 12.9352 14.3235 13.21 14.5695 13.453C14.8701 13.7501 15.0053 14.1168 15.0063 14.4769M13.9488 12.6377C14.1151 12.9294 14.3217 13.1989 14.5645 13.4375C14.8708 13.7385 15.0072 14.1114 15.0063 14.4769M2.05743 12.6376C1.89118 12.9293 1.68454 13.1988 1.44173 13.4375C1.13549 13.7385 0.999048 14.1114 1.00001 14.477M2.05743 12.6376C2.29943 12.2048 2.45245 11.7239 2.50299 11.2233L2.88646 7.42542C3.15183 4.79719 5.36429 2.79688 8.00588 2.79688M2.05743 12.6376C1.89111 12.9351 1.68277 13.21 1.4368 13.453C1.1361 13.7501 1.00096 14.1168 1.00001 14.477" stroke="#006B40" stroke-width="1.5" stroke-linecap="round" stroke-linejoin="round"/>
<path d="M8.01562 1L8.01563 2.79638" stroke="#006B40" stroke-width="1.5" stroke-linecap="round" stroke-linejoin="round"/>
<path d="M10.3375 15.9512C10.3375 16.3723 10.2254 16.7672 10.0296 17.1077C9.6286 17.8048 8.87633 18.2742 8.01444 18.2742C7.15255 18.2742 6.40029 17.8048 5.99933 17.1077C5.80344 16.7672 5.69141 16.3723 5.69141 15.9512" stroke="#006B40" stroke-width="1.5" stroke-linecap="round" stroke-linejoin="round"/>
</svg>
