<svg width="29" height="28" viewBox="0 0 29 28" fill="none" xmlns="http://www.w3.org/2000/svg">
<g clip-path="url(#clip0_477_15604)">
<path d="M21.2496 11.1472C21.5396 9.58257 21.1962 7.9668 20.2949 6.65537C19.3936 5.34394 18.0082 4.44427 16.4435 4.15428C14.8789 3.86429 13.2631 4.20773 11.9517 5.10905C10.6403 6.01037 9.74058 7.39574 9.45059 8.9604C8.17494 15.8432 4.86071 17.263 4.86071 17.263L22.5593 20.5432C22.5593 20.5432 19.974 18.03 21.2496 11.1472Z" fill="#3C3F4E" stroke="#3C3F4E" stroke-width="2" stroke-linecap="round" stroke-linejoin="round"/>
<path d="M14.6824 23.1476C14.4543 23.4136 14.1603 23.615 13.8299 23.7316C13.4995 23.8482 13.1443 23.876 12.7998 23.8121C12.4553 23.7483 12.1336 23.595 11.8669 23.3678C11.6002 23.1405 11.398 22.8471 11.2803 22.5171" stroke="#3C3F4E" stroke-width="2" stroke-linecap="round" stroke-linejoin="round"/>
</g>
<defs>
<clipPath id="clip0_477_15604">
<rect width="24" height="24" fill="white" transform="translate(5.00922) rotate(10.5)"/>
</clipPath>
</defs>
</svg>
