<svg width="18" height="18" viewBox="0 0 18 18" fill="none" xmlns="http://www.w3.org/2000/svg">
<path d="M8.99995 4.875C8.79286 4.875 8.62495 5.04291 8.62495 5.25V8.76855L6.59546 9.79028C6.46912 9.85396 6.38937 9.98332 6.38924 10.1248C6.3891 10.3319 6.55687 10.4999 6.76392 10.5C6.82246 10.5003 6.88023 10.4864 6.93233 10.4597L9.16841 9.33472C9.29498 9.27113 9.37486 9.14163 9.37495 9V5.25C9.37495 5.04291 9.20709 4.875 8.99995 4.875ZM9 1.5C4.85788 1.5 1.5 4.85788 1.5 9C1.5 13.1421 4.85788 16.5 9 16.5C13.1401 16.4951 16.4951 13.1401 16.5 9C16.5 4.85788 13.1421 1.5 9 1.5ZM9 15.75C5.27206 15.75 2.25 12.7279 2.25 9C2.25 5.27206 5.27206 2.25 9 2.25C12.7262 2.25407 15.7459 5.27376 15.75 9C15.75 12.7279 12.7279 15.75 9 15.75Z" fill="#636363"/>
</svg>
