<svg width="39" height="39" viewBox="0 0 39 39" fill="none" xmlns="http://www.w3.org/2000/svg">
<path d="M13.8511 13.8731C14.0744 13.6498 14.3773 13.5244 14.6931 13.5244C15.0089 13.5244 15.3118 13.6498 15.5351 13.8731L19.4564 17.7945L23.3778 13.8731C23.6011 13.6498 23.904 13.5244 24.2198 13.5244C24.5356 13.5244 24.8384 13.6498 25.0617 13.8731C25.285 14.0964 25.4105 14.3993 25.4105 14.7151C25.4105 15.0309 25.285 15.3338 25.0617 15.5571L21.1404 19.4784L25.0617 23.3998C25.285 23.6231 25.4105 23.926 25.4105 24.2418C25.4105 24.5576 25.285 24.8604 25.0617 25.0838C24.8384 25.3071 24.5356 25.4325 24.2198 25.4325C23.904 25.4325 23.6011 25.3071 23.3778 25.0838L19.4564 21.1624L15.5351 25.0838C15.3118 25.3071 15.0089 25.4325 14.6931 25.4325C14.3773 25.4325 14.0744 25.3071 13.8511 25.0838C13.6278 24.8604 13.5024 24.5576 13.5024 24.2418C13.5024 23.926 13.6278 23.6231 13.8511 23.3998L17.7725 19.4784L13.8511 15.5571C13.6278 15.3338 13.5024 15.0309 13.5024 14.7151C13.5024 14.3993 13.6278 14.0964 13.8511 13.8731Z" fill="white"/>
<path fill-rule="evenodd" clip-rule="evenodd" d="M23.4396 4.98071C27.3211 8.08749 30.8474 11.6138 33.9542 15.4953C35.7762 17.7754 35.8166 21.0467 33.9946 23.3492C30.8658 27.3088 27.2857 30.8889 23.3262 34.0176C21.0225 35.8385 17.7523 35.797 15.4722 33.9772C11.5907 30.8704 8.06443 27.3442 4.95764 23.4626C3.13673 21.1814 3.09519 17.9112 4.91723 15.6087C8.04782 11.6511 11.628 8.07089 15.5856 4.94029C17.8881 3.11826 21.1606 3.1598 23.4396 4.98071ZM32.0951 16.9817C29.0984 13.2378 25.6971 9.83651 21.9532 6.83979C21.2601 6.28509 20.4002 5.98027 19.5124 5.97457C18.6247 5.96887 17.761 6.26261 17.0608 6.80835C13.2476 9.82296 9.79878 13.2718 6.78417 17.0849C6.23886 17.7852 5.94548 18.6488 5.95139 19.5363C5.95729 20.4237 6.26215 21.2834 6.81672 21.9763C9.78609 25.6911 13.2438 29.1488 16.9586 32.1181C17.6515 32.6723 18.511 32.9768 19.3982 32.9825C20.2855 32.9882 21.1488 32.6948 21.8488 32.1496C25.662 29.135 29.1108 25.6862 32.1254 21.873C32.6701 21.1729 32.9632 20.3098 32.9573 19.4228C32.9514 18.5358 32.6468 17.6766 32.0928 16.9839" fill="white"/>
</svg>
