<svg width="16" height="16" viewBox="0 0 16 16" fill="none" xmlns="http://www.w3.org/2000/svg">
<path d="M14.6134 5.93333C13.2667 9.06 10.7334 11 8.00004 11C5.26671 11 2.73338 9.06 1.38671 5.93333C1.35 5.84922 1.33105 5.75844 1.33105 5.66667C1.33105 5.5749 1.35 5.48411 1.38671 5.4C2.73338 2.27333 5.26671 0.333335 8.00004 0.333335C10.7334 0.333335 13.2667 2.27333 14.6134 5.4C14.6501 5.48411 14.669 5.5749 14.669 5.66667C14.669 5.75844 14.6501 5.84922 14.6134 5.93333ZM8.00004 1.66667C5.88671 1.66667 3.88671 3.19333 2.73338 5.66667C3.88671 8.14 5.88671 9.66667 8.00004 9.66667C10.1134 9.66667 12.1134 8.14 13.2667 5.66667C12.1134 3.19333 10.1134 1.66667 8.00004 1.66667ZM8.00004 8.33333C7.47263 8.33333 6.95705 8.17694 6.51852 7.88392C6.07999 7.5909 5.7382 7.17443 5.53637 6.68716C5.33453 6.19989 5.28172 5.66371 5.38462 5.14643C5.48751 4.62914 5.74149 4.15399 6.11443 3.78105C6.48737 3.40811 6.96252 3.15413 7.4798 3.05124C7.99709 2.94835 8.53326 3.00115 9.02053 3.20299C9.5078 3.40482 9.92428 3.74662 10.2173 4.18515C10.5103 4.62368 10.6667 5.13925 10.6667 5.66667C10.6667 6.37391 10.3858 7.05219 9.88566 7.55229C9.38556 8.05238 8.70729 8.33333 8.00004 8.33333ZM8.00004 4.33333C7.73634 4.33333 7.47855 4.41153 7.25928 4.55804C7.04002 4.70455 6.86912 4.91279 6.7682 5.15642C6.66729 5.40006 6.64088 5.66815 6.69233 5.92679C6.74378 6.18543 6.87077 6.42301 7.05724 6.60948C7.24371 6.79595 7.48128 6.92293 7.73992 6.97438C7.99857 7.02583 8.26665 6.99942 8.51029 6.89851C8.75392 6.79759 8.96216 6.62669 9.10867 6.40743C9.25518 6.18816 9.33338 5.93038 9.33338 5.66667C9.33338 5.31305 9.1929 4.97391 8.94285 4.72386C8.6928 4.47381 8.35367 4.33333 8.00004 4.33333Z" fill="#166FF6"/>
</svg>
