<svg width="27" height="27" viewBox="0 0 27 27" fill="none" xmlns="http://www.w3.org/2000/svg">
<path d="M5.52856 13.4789C5.52856 13.1631 5.65402 12.8602 5.87732 12.6369C6.10063 12.4136 6.4035 12.2881 6.7193 12.2881H12.2649V6.74249C12.2649 6.42669 12.3904 6.12382 12.6137 5.90052C12.837 5.67721 13.1399 5.55176 13.4557 5.55176C13.7715 5.55176 14.0743 5.67721 14.2976 5.90052C14.521 6.12382 14.6464 6.42669 14.6464 6.74249V12.2881H20.192C20.5078 12.2881 20.8107 12.4136 21.034 12.6369C21.2573 12.8602 21.3828 13.1631 21.3828 13.4789C21.3828 13.7947 21.2573 14.0975 21.034 14.3208C20.8107 14.5441 20.5078 14.6696 20.192 14.6696H14.6464V20.2152C14.6464 20.531 14.521 20.8339 14.2976 21.0572C14.0743 21.2805 13.7715 21.406 13.4557 21.406C13.1399 21.406 12.837 21.2805 12.6137 21.0572C12.3904 20.8339 12.2649 20.531 12.2649 20.2152V14.6696H6.7193C6.4035 14.6696 6.10063 14.5441 5.87732 14.3208C5.65402 14.0975 5.52856 13.7947 5.52856 13.4789Z" fill="white"/>
<path fill-rule="evenodd" clip-rule="evenodd" d="M6.02069 0.410872C10.9622 -0.136957 15.9491 -0.136957 20.8906 0.410872C23.7912 0.734752 26.133 3.01937 26.4727 5.93587C27.0601 10.9481 27.0601 16.0111 26.4727 21.0233C26.1314 23.9398 23.7896 26.2228 20.8906 26.5483C15.9491 27.0961 10.9622 27.0961 6.02069 26.5483C3.12007 26.2228 0.778292 23.9398 0.438536 21.0233C-0.146261 16.0111 -0.146261 10.948 0.438537 5.93587C0.778292 3.01937 3.12165 0.734752 6.02069 0.410872ZM20.627 2.77646C15.8607 2.24814 11.0506 2.24814 6.28424 2.77646C5.4019 2.87435 4.57832 3.26684 3.94656 3.89054C3.3148 4.51423 2.91176 5.3327 2.80254 6.21371C2.23786 11.0417 2.23786 15.919 2.80254 20.747C2.91209 21.6277 3.31528 22.4458 3.94701 23.0692C4.57874 23.6926 5.40213 24.0849 6.28424 24.1827C11.0107 24.7098 15.9006 24.7098 20.627 24.1827C21.5088 24.0845 22.3319 23.6921 22.9633 23.0688C23.5947 22.4454 23.9977 21.6275 24.1071 20.747C24.6718 15.919 24.6718 11.0417 24.1071 6.21371C23.9973 5.33351 23.5942 4.51596 22.9628 3.89293C22.3315 3.2699 21.5086 2.87772 20.627 2.77964" fill="white"/>
</svg>
