<svg width="50" height="50" viewBox="0 0 50 50" fill="none" xmlns="http://www.w3.org/2000/svg">
<rect width="50" height="50" rx="25" fill="#3D9970"/>
<path d="M27.5 28C28.2 28 28.6667 27.5333 28.6667 26.8333V25.6667H29.8333C30.5333 25.6667 31 25.2 31 24.5C31 23.8 30.5333 23.3333 29.8333 23.3333H28.6667V22.1667C28.6667 21.4667 28.2 21 27.5 21C26.8 21 26.3333 21.4667 26.3333 22.1667V23.3333H25.1667C24.4667 23.3333 24 23.8 24 24.5C24 25.2 24.4667 25.6667 25.1667 25.6667H26.3333V26.8333C26.3333 27.5333 26.8 28 27.5 28Z" fill="white"/>
<path d="M36.8758 21.9971C36.6409 21.2305 36.1712 20.6172 35.4666 20.2595C34.5793 19.7996 33.5354 19.8507 32.8047 19.9784L31.2911 14.7401C31.1867 14.3824 30.8997 14.1013 30.5343 14.0246C30.1689 13.948 29.7775 14.0502 29.5165 14.3313C25.7847 18.4197 24.245 19.4163 20.1217 21.1794L16.8857 22.0993C14.0412 22.8914 12.3971 25.8556 13.2061 28.6408C13.5976 29.9951 14.5109 31.145 15.7897 31.8349C16.5987 32.2693 17.486 32.4993 18.3732 32.4993C18.7908 32.4993 19.2344 32.4482 19.652 32.346L19.9912 33.5469C20.1739 34.1858 20.5393 34.7479 21.009 35.2079L21.557 35.7189C21.7658 35.8978 22.0268 36 22.2877 36C22.5748 36 22.8358 35.8978 23.0446 35.6934C23.436 35.2845 23.436 34.6457 22.9924 34.2369L22.4443 33.7258C22.2356 33.5214 22.079 33.2659 22.0007 32.9848L21.6614 31.7838L23.175 31.3494C27.5071 30.7106 29.4643 30.7617 34.762 32.2437C34.8664 32.2693 34.9446 32.2948 35.049 32.2948C35.31 32.2948 35.5971 32.1926 35.7797 31.9882C36.0407 31.7327 36.1451 31.3494 36.0407 30.9917L34.501 25.7533C35.1795 25.4978 36.0929 25.0379 36.6148 24.1946C37.0063 23.5303 37.1107 22.7892 36.8758 21.9971ZM16.8074 30.0462C16.0245 29.6374 15.4765 28.9219 15.2155 28.1042C14.7197 26.3666 15.7375 24.5779 17.4599 24.0669L19.8086 23.4025L20.8785 27.1076L21.6092 29.6629L19.2605 30.3273C18.4515 30.5573 17.5642 30.4551 16.8074 30.0462ZM27.4288 28.9219C26.2544 28.9219 25.0801 29.0241 23.697 29.203L22.1834 23.9647L21.818 22.687C25.1062 21.205 26.8808 20.0551 29.8036 17.0654L33.5093 29.8162C31.0301 29.1774 29.2556 28.9219 27.4288 28.9219ZM34.8403 23.1214C34.6837 23.4025 34.2922 23.6069 33.9269 23.7602L33.4049 21.9715C33.7964 21.9204 34.24 21.9204 34.5271 22.0738C34.6576 22.1504 34.7881 22.2526 34.8924 22.5337C34.9707 22.8403 34.8924 22.9937 34.8403 23.1214ZM28.2117 21.4349C25.771 23.7602 25.0801 23.3003 24.6625 23.5814C23.697 24.2457 25.9413 23.9391 25.8891 23.9647C25.7586 24.0413 25.602 24.0669 25.4715 24.0669C25.1323 24.0669 24.8191 23.888 24.6625 23.5814C24.4277 23.147 25.6397 23.6325 26.0833 23.4025C26.0833 23.4025 24.6364 24.6546 25.4715 24.0669C25.8891 23.7347 27.9246 21.0261 28.2117 21.4349Z" fill="white"/>
</svg>
