<svg width="32" height="25" viewBox="0 0 32 25" fill="none" xmlns="http://www.w3.org/2000/svg">
<path d="M10.5 3.72427C10.5 1.73104 8.757 0 6.75 0C4.743 0 3 1.73104 3 3.72427C3 5.7175 4.743 7.44854 6.75 7.44854C8.757 7.44854 10.5 5.7175 10.5 3.72427ZM13.125 17.8765C13.125 11.9177 10.011 8.93824 6.5625 8.93824C3.114 8.93824 0 11.9177 0 17.8765C0 21.9583 13.125 21.9583 13.125 17.8765ZM17.625 10.346C19.632 10.346 21.375 8.61498 21.375 6.62175C21.375 4.62852 19.632 2.89748 17.625 2.89748C15.618 2.89748 13.875 4.62852 13.875 6.62175C13.875 8.61498 15.618 10.346 17.625 10.346ZM17.4375 11.8357C16.401 11.8357 15.408 12.1381 14.508 12.6774C15.0525 14.1314 15.375 15.855 15.375 17.8765C15.375 19.8831 14.028 21.4458 11.7165 22.3397C14.583 24.75 24 24.236 24 20.774C24 14.8151 20.886 11.8357 17.4375 11.8357Z" fill="white"/>
<path d="M29.7083 9.04159H26.9583V6.29159C26.9583 6.17003 26.91 6.05345 26.8241 5.96749C26.7381 5.88154 26.6215 5.83325 26.5 5.83325C26.3784 5.83325 26.2618 5.88154 26.1759 5.96749C26.0899 6.05345 26.0416 6.17003 26.0416 6.29159V9.04159H23.2916C23.1701 9.04159 23.0535 9.08987 22.9676 9.17583C22.8816 9.26178 22.8333 9.37836 22.8333 9.49992C22.8333 9.62148 22.8816 9.73805 22.9676 9.82401C23.0535 9.90996 23.1701 9.95825 23.2916 9.95825H26.0416V12.7083C26.0416 12.8298 26.0899 12.9464 26.1759 13.0323C26.2618 13.1183 26.3784 13.1666 26.5 13.1666C26.6215 13.1666 26.7381 13.1183 26.8241 13.0323C26.91 12.9464 26.9583 12.8298 26.9583 12.7083V9.95825H29.7083C29.8299 9.95825 29.9464 9.90996 30.0324 9.82401C30.1184 9.73805 30.1666 9.62148 30.1666 9.49992C30.1666 9.37836 30.1184 9.26178 30.0324 9.17583C29.9464 9.08987 29.8299 9.04159 29.7083 9.04159Z" fill="white"/>
</svg>
