<svg width="30" height="30" viewBox="0 0 30 30" fill="none" xmlns="http://www.w3.org/2000/svg">
<g clip-path="url(#clip0_528_13104)">
<rect width="30" height="30" fill="white"/>
<mask id="mask0_528_13104" style="mask-type:luminance" maskUnits="userSpaceOnUse" x="0" y="0" width="30" height="30">
<path d="M30 0H0V30H30V0Z" fill="white"/>
</mask>
<g mask="url(#mask0_528_13104)">
<path opacity="0.4" d="M23.9002 11.4002C23.4127 11.4002 23.0252 11.7877 23.0252 12.2752V14.2503C23.0252 18.6753 19.4252 22.2753 15.0002 22.2753C10.5752 22.2753 6.97522 18.6753 6.97522 14.2503V12.2627C6.97522 11.7752 6.58772 11.3877 6.10022 11.3877C5.61272 11.3877 5.22522 11.7752 5.22522 12.2627V14.2378C5.22522 19.3253 9.13772 23.5128 14.1252 23.9628V26.6253C14.1252 27.1128 14.5127 27.5003 15.0002 27.5003C15.4877 27.5003 15.8752 27.1128 15.8752 26.6253V23.9628C20.8502 23.5253 24.7752 19.3253 24.7752 14.2378V12.2627C24.7627 11.7877 24.3752 11.4002 23.9002 11.4002Z" fill="url(#paint0_linear_528_13104)"/>
<path d="M15.0001 2.5C11.9501 2.5 9.4751 4.975 9.4751 8.025V14.425C9.4751 17.475 11.9501 19.95 15.0001 19.95C18.0501 19.95 20.5251 17.475 20.5251 14.425V8.025C20.5251 4.975 18.0501 2.5 15.0001 2.5ZM16.6376 11.1875C16.5501 11.5125 16.2626 11.725 15.9376 11.725C15.8751 11.725 15.8126 11.7125 15.7501 11.7C15.2626 11.5625 14.7501 11.5625 14.2626 11.7C13.8626 11.8125 13.4751 11.575 13.3751 11.1875C13.2626 10.8 13.5001 10.4 13.8876 10.3C14.6251 10.1 15.4001 10.1 16.1376 10.3C16.5126 10.4 16.7376 10.8 16.6376 11.1875ZM17.3001 8.7625C17.1876 9.0625 16.9126 9.2375 16.6126 9.2375C16.5251 9.2375 16.4501 9.225 16.3626 9.2C15.4876 8.875 14.5126 8.875 13.6376 9.2C13.2626 9.3375 12.8376 9.1375 12.7001 8.7625C12.5626 8.3875 12.7626 7.9625 13.1376 7.8375C14.3376 7.4 15.6626 7.4 16.8626 7.8375C17.2376 7.975 17.4376 8.3875 17.3001 8.7625Z" fill="url(#paint1_linear_528_13104)"/>
</g>
</g>
<defs>
<linearGradient id="paint0_linear_528_13104" x1="15.0002" y1="11.3877" x2="15.0002" y2="27.5003" gradientUnits="userSpaceOnUse">
<stop stop-color="#035A50"/>
<stop offset="1" stop-color="#1C8076"/>
</linearGradient>
<linearGradient id="paint1_linear_528_13104" x1="15.0001" y1="2.5" x2="15.0001" y2="19.95" gradientUnits="userSpaceOnUse">
<stop stop-color="#035A50"/>
<stop offset="1" stop-color="#1C8076"/>
</linearGradient>
<clipPath id="clip0_528_13104">
<rect width="30" height="30" fill="white"/>
</clipPath>
</defs>
</svg>
