<svg width="48" height="48" viewBox="0 0 48 48" fill="none" xmlns="http://www.w3.org/2000/svg">
<path d="M24 48C37.2548 48 48 37.2548 48 24C48 10.7452 37.2548 0 24 0C10.7452 0 0 10.7452 0 24C0 37.2548 10.7452 48 24 48Z" fill="#DEDEDE"/>
<path d="M18.5 15.7243C18.5 13.731 16.757 12 14.75 12C12.743 12 11 13.731 11 15.7243C11 17.7175 12.743 19.4485 14.75 19.4485C16.757 19.4485 18.5 17.7175 18.5 15.7243ZM21.125 29.8765C21.125 23.9177 18.011 20.9382 14.5625 20.9382C11.114 20.9382 8 23.9177 8 29.8765C8 33.9583 21.125 33.9583 21.125 29.8765ZM25.625 22.346C27.632 22.346 29.375 20.615 29.375 18.6217C29.375 16.6285 27.632 14.8975 25.625 14.8975C23.618 14.8975 21.875 16.6285 21.875 18.6217C21.875 20.615 23.618 22.346 25.625 22.346ZM25.4375 23.8357C24.401 23.8357 23.408 24.1381 22.508 24.6774C23.0525 26.1314 23.375 27.855 23.375 29.8765C23.375 31.8831 22.028 33.4458 19.7165 34.3397C22.583 36.75 32 36.236 32 32.774C32 26.8151 28.886 23.8357 25.4375 23.8357Z" fill="white"/>
<path d="M37.7083 21.0416H34.9583V18.2916C34.9583 18.17 34.91 18.0534 34.8241 17.9675C34.7381 17.8815 34.6215 17.8333 34.5 17.8333C34.3784 17.8333 34.2618 17.8815 34.1759 17.9675C34.0899 18.0534 34.0416 18.17 34.0416 18.2916V21.0416H31.2916C31.1701 21.0416 31.0535 21.0899 30.9676 21.1758C30.8816 21.2618 30.8333 21.3784 30.8333 21.4999C30.8333 21.6215 30.8816 21.7381 30.9676 21.824C31.0535 21.91 31.1701 21.9583 31.2916 21.9583H34.0416V24.7083C34.0416 24.8298 34.0899 24.9464 34.1759 25.0323C34.2618 25.1183 34.3784 25.1666 34.5 25.1666C34.6215 25.1666 34.7381 25.1183 34.8241 25.0323C34.91 24.9464 34.9583 24.8298 34.9583 24.7083V21.9583H37.7083C37.8299 21.9583 37.9464 21.91 38.0324 21.824C38.1184 21.7381 38.1666 21.6215 38.1666 21.4999C38.1666 21.3784 38.1184 21.2618 38.0324 21.1758C37.9464 21.0899 37.8299 21.0416 37.7083 21.0416Z" fill="white"/>
</svg>
