<svg width="19" height="18" viewBox="0 0 19 18" fill="none" xmlns="http://www.w3.org/2000/svg">
<g clip-path="url(#clip0_477_14829)">
<path d="M5.76375 2.84998C5.87306 2.31169 6.26852 1.60996 7.09657 1.60996L11.8891 1.61048C12.7192 1.60945 13.1141 2.31169 13.2224 2.84998C13.2813 3.14168 13.279 3.44242 13.2157 3.7332C13.1533 4.01523 13.0187 4.31583 12.7718 4.53805C12.6502 4.64351 12.5249 4.74446 12.3959 4.8407L12.3557 4.87061C12.2174 4.97423 12.0832 5.08328 11.9535 5.1975C11.6808 5.44447 11.6246 5.58832 11.6235 5.65123L11.624 8.21942C11.624 8.30192 11.6643 8.44526 11.8014 8.66078C11.9339 8.86856 12.1268 9.09439 12.3546 9.33054C12.5738 9.55689 12.8094 9.77705 13.0373 9.98844L13.0621 10.0122C13.2879 10.2225 13.5184 10.4375 13.6823 10.6231C14.1804 11.1882 14.1577 11.9936 13.9313 12.5819C13.7045 13.1697 13.1683 13.7956 12.3603 13.7951H10.0401L10.0401 18.0282C10.0427 18.1016 10.0305 18.1747 10.0042 18.2433C9.9779 18.3119 9.93806 18.3744 9.88705 18.4273C9.83605 18.4801 9.77492 18.5221 9.70732 18.5508C9.63972 18.5795 9.56703 18.5943 9.49359 18.5943C9.42015 18.5943 9.34746 18.5795 9.27986 18.5508C9.21226 18.5221 9.15114 18.4801 9.10013 18.4273C9.04913 18.3744 9.00928 18.3119 8.98298 18.2433C8.95669 18.1747 8.94447 18.1016 8.94706 18.0282L8.94654 13.7956L6.62635 13.7956C5.8184 13.7951 5.28218 13.1702 5.05583 12.5819C4.82897 11.9941 4.8068 11.1882 5.30435 10.6237C5.46883 10.4375 5.6993 10.2225 5.92513 10.0122L5.94988 9.98844C6.17726 9.77653 6.41341 9.55689 6.63254 9.33054C6.86043 9.0944 7.05326 8.86856 7.18577 8.66078C7.32292 8.44526 7.36262 8.3014 7.36262 8.21891L7.36262 5.65123C7.36262 5.58832 7.30591 5.44396 7.03264 5.1975C6.90294 5.08328 6.76878 4.97424 6.63047 4.87061L6.59077 4.84019C6.46181 4.74395 6.33644 4.64299 6.2149 4.53753C5.96741 4.31583 5.83284 4.01523 5.76994 3.73371C5.70601 3.44704 5.70549 3.1382 5.76375 2.84998Z" fill="#14142B"/>
</g>
<defs>
<clipPath id="clip0_477_14829">
<rect width="17.5" height="17.5" fill="white" transform="translate(0.75)"/>
</clipPath>
</defs>
</svg>
