<svg width="24" height="22" viewBox="0 0 24 22" fill="none" xmlns="http://www.w3.org/2000/svg">
<path d="M14.5 14C15.2 14 15.6667 13.5333 15.6667 12.8333V11.6667H16.8333C17.5333 11.6667 18 11.2 18 10.5C18 9.8 17.5333 9.33333 16.8333 9.33333H15.6667V8.16667C15.6667 7.46667 15.2 7 14.5 7C13.8 7 13.3333 7.46667 13.3333 8.16667V9.33333H12.1667C11.4667 9.33333 11 9.8 11 10.5C11 11.2 11.4667 11.6667 12.1667 11.6667H13.3333V12.8333C13.3333 13.5333 13.8 14 14.5 14Z" fill="white"/>
<path d="M23.8758 7.9971C23.6409 7.23051 23.1712 6.61725 22.4666 6.25951C21.5793 5.79956 20.5354 5.85067 19.8047 5.97843L18.2911 0.740117C18.1867 0.382379 17.8997 0.101298 17.5343 0.0246401C17.1689 -0.0520181 16.7775 0.0501929 16.5165 0.331273C12.7847 4.41971 11.245 5.41627 7.12172 7.17941L3.88573 8.09931C1.0412 8.89144 -0.602896 11.8556 0.206102 14.6408C0.597552 15.9951 1.51094 17.145 2.78967 17.8349C3.59867 18.2693 4.48596 18.4993 5.37324 18.4993C5.79079 18.4993 6.23444 18.4482 6.65198 18.346L6.99124 19.5469C7.17392 20.1858 7.53927 20.7479 8.00901 21.2079L8.55704 21.7189C8.76581 21.8978 9.02678 22 9.28775 22C9.57481 22 9.83578 21.8978 10.0446 21.6934C10.436 21.2845 10.436 20.6457 9.99236 20.2369L9.44433 19.7258C9.23555 19.5214 9.07897 19.2659 9.00068 18.9848L8.66143 17.7838L10.175 17.3494C14.5071 16.7106 16.4643 16.7617 21.762 18.2437C21.8664 18.2693 21.9446 18.2948 22.049 18.2948C22.31 18.2948 22.5971 18.1926 22.7797 17.9882C23.0407 17.7327 23.1451 17.3494 23.0407 16.9917L21.501 11.7533C22.1795 11.4978 23.0929 11.0379 23.6148 10.1946C24.0063 9.53026 24.1107 8.78923 23.8758 7.9971ZM3.80744 16.0462C3.02454 15.6374 2.47651 14.9219 2.21555 14.1042C1.71971 12.3666 2.73748 10.5779 4.45986 10.0669L6.80856 9.4025L7.87853 13.1076L8.60923 15.6629L6.26053 16.3273C5.45153 16.5573 4.56425 16.4551 3.80744 16.0462ZM14.4288 14.9219C13.2544 14.9219 12.0801 15.0241 10.697 15.203L9.18336 9.96466L8.81801 8.68702C12.1062 7.20496 13.8808 6.05509 16.8036 3.06542L20.5093 15.8162C18.0301 15.1774 16.2556 14.9219 14.4288 14.9219ZM21.8403 9.12142C21.6837 9.4025 21.2922 9.60692 20.9269 9.76023L20.4049 7.97154C20.7964 7.92044 21.24 7.92044 21.5271 8.07375C21.6576 8.15041 21.7881 8.25262 21.8924 8.5337C21.9707 8.84034 21.8924 8.99365 21.8403 9.12142ZM15.2117 7.43494C12.771 9.76023 12.0801 9.30029 11.6625 9.58137C10.697 10.2457 12.9413 9.9391 12.8891 9.96466C12.7586 10.0413 12.602 10.0669 12.4715 10.0669C12.1323 10.0669 11.8191 9.888 11.6625 9.58137C11.4277 9.14697 12.6397 9.63247 13.0833 9.4025C13.0833 9.4025 11.6364 10.6546 12.4715 10.0669C12.8891 9.73468 14.9246 7.02609 15.2117 7.43494Z" fill="white"/>
</svg>
