<svg width="17" height="14" viewBox="0 0 17 14" fill="none" xmlns="http://www.w3.org/2000/svg">
<g opacity="0.8">
<path d="M10.4457 2.02162C10.7063 1.69988 11.1785 1.6499 11.5004 1.91029C11.8221 2.17091 11.8721 2.64312 11.6117 2.96498L5.13122 10.965C4.99776 11.1297 4.80095 11.2308 4.58923 11.2423C4.37744 11.2538 4.17037 11.175 4.01989 11.0255L1.00036 8.02553L0.948602 7.96889C0.707214 7.67517 0.722891 7.24056 0.996453 6.96498C1.28831 6.6712 1.76313 6.66937 2.057 6.96107L4.48864 9.37611L10.4457 2.02162ZM15.4633 2.00014C15.7355 1.6881 16.2097 1.65568 16.5218 1.92787C16.8339 2.20015 16.8663 2.67435 16.5941 2.98646L9.61364 10.9865C9.4779 11.142 9.28379 11.2343 9.07751 11.2423C8.87127 11.2503 8.67117 11.173 8.5238 11.0285L7.50329 10.0285L7.45153 9.97279C7.20821 9.68059 7.22159 9.24525 7.49352 8.96791C7.76537 8.69104 8.19966 8.66928 8.49645 8.90639L8.55407 8.95814L9.00524 9.40053L15.4633 2.00014Z" fill="#9C9CA3"/>
</g>
</svg>
