<svg width="24" height="19" viewBox="0 0 24 19" fill="none" xmlns="http://www.w3.org/2000/svg">
<path d="M7.99337 12.8369C7.72331 12.8029 7.44962 12.787 7.17426 12.787H6.77586C5.33124 12.787 3.95079 13.2365 2.78433 14.0868C2.49725 14.2969 2.32511 14.6476 2.32511 15.0245V17.4369C2.32511 18.0795 1.80451 18.5995 1.16256 18.5995C0.520597 18.5995 0 18.0795 0 17.4369V15.0245C0 13.9074 0.528409 12.8551 1.41337 12.2092C2.98102 11.0662 4.83492 10.4622 6.77558 10.4622H7.17398C7.54587 10.4622 7.91581 10.4848 8.28129 10.5302C8.91823 10.6098 9.36992 11.1909 9.2904 11.8278C9.21145 12.4645 8.62696 12.9095 7.99337 12.8369ZM21.8352 14.534C20.5854 13.6226 19.1131 13.0412 17.5781 12.854C16.9367 12.7778 16.3612 13.2309 16.2828 13.8678C16.2055 14.5059 16.6597 15.0848 17.2966 15.1632C18.4396 15.3015 19.5352 15.7343 20.4651 16.4119C20.7536 16.622 20.9249 16.9727 20.9249 17.3496V17.4369C20.9249 18.0795 21.4449 18.5551 22.0874 18.5551C22.73 18.5551 23.25 17.9921 23.25 17.3496C23.2497 16.2323 22.7208 15.1799 21.8352 14.534ZM13.9498 13.9496H12.7873V12.787C12.7873 12.1445 12.2667 11.6244 11.6247 11.6244C10.9828 11.6244 10.4622 12.1445 10.4622 12.787V13.9496H9.29961C8.65765 13.9496 8.13705 14.4696 8.13705 15.1121C8.13705 15.7546 8.65765 16.2747 9.29961 16.2747H10.4622V17.4372C10.4622 18.0797 10.9828 18.5998 11.6247 18.5998C12.2667 18.5998 12.7873 18.0797 12.7873 17.4372V16.2744H13.9498C14.5923 16.2744 15.1124 15.7543 15.1124 15.1118C15.1124 14.4693 14.5923 13.9496 13.9498 13.9496ZM3.48767 4.06853C3.48767 1.82544 5.05197 0 6.97506 0C8.89814 0 10.4624 1.82544 10.4624 4.06853C10.4624 6.31162 8.89814 8.13705 6.97506 8.13705C5.05197 8.13705 3.48767 6.31162 3.48767 4.06853ZM5.81278 4.06853C5.81278 4.99701 6.35597 5.81222 6.97533 5.81222C7.59469 5.81222 8.13789 4.99701 8.13789 4.06853C8.13789 3.14004 7.59442 2.32483 6.97506 2.32483C6.3557 2.32483 5.81278 3.14004 5.81278 4.06853ZM16.2749 10.4622C14.3519 10.4622 12.7876 8.63673 12.7876 6.39364C12.7876 4.15055 14.3519 2.32483 16.2749 2.32483C18.198 2.32483 19.7623 4.15027 19.7623 6.39336C19.7623 8.63645 18.198 10.4622 16.2749 10.4622ZM17.4372 6.39336C17.4372 5.46488 16.8935 4.64967 16.2747 4.64967C15.6559 4.64967 15.1121 5.46488 15.1121 6.39336C15.1121 7.32184 15.6559 8.13705 16.2747 8.13705C16.8935 8.13705 17.4372 7.32212 17.4372 6.39336Z" fill="white"/>
</svg>
