<svg width="18" height="21" viewBox="0 0 18 21" fill="none" xmlns="http://www.w3.org/2000/svg">
<path d="M13.2458 4.64845C13.2458 2.11293 11.1328 0 8.49168 0C5.85052 0 3.73759 2.11293 3.73759 4.64845C3.73759 7.18397 5.85052 9.2969 8.49168 9.2969C11.1328 9.2969 13.2458 7.18397 13.2458 4.64845ZM5.85052 4.64845C5.85052 3.27505 7.01263 2.11293 8.49168 2.11293C9.97073 2.11293 11.1328 3.27505 11.1328 4.64845C11.1328 6.02186 9.97073 7.18397 8.49168 7.18397C7.01263 7.18397 5.85052 6.02186 5.85052 4.64845ZM2.78677 15.4244C3.20936 13.6284 4.68841 12.4663 6.37875 12.4663H10.6046C11.4498 12.4663 12.295 12.7832 13.0345 13.3115C13.4571 13.7341 14.1966 13.6284 14.5135 13.2058C14.9361 12.7832 14.8305 12.0437 14.4079 11.7268C13.3514 10.8816 11.978 10.3534 10.6046 10.3534H6.37875C3.73759 10.3534 1.41337 12.1494 0.673844 14.8962L0.145612 16.9035C-0.171328 17.8543 0.0399654 18.9107 0.673844 19.7559C1.30772 20.4954 2.15289 20.918 3.20936 20.918H10.499C11.1328 20.918 11.5554 20.4954 11.5554 19.8616C11.5554 19.2277 11.1328 18.8051 10.499 18.8051H3.20936C2.78677 18.8051 2.57548 18.5938 2.46983 18.3825C2.1529 18.1712 2.04725 17.7486 2.15289 17.4317L2.78677 15.4244Z" fill="white"/>
<path d="M14.8306 20.9181C15.4645 20.9181 15.8871 20.4956 15.8871 19.8617V18.8052H16.9436C17.5775 18.8052 18 18.3826 18 17.7487C18 17.1149 17.5775 16.6923 16.9436 16.6923H15.8871V15.6358C15.8871 15.0019 15.4645 14.5793 14.8306 14.5793C14.1968 14.5793 13.7742 15.0019 13.7742 15.6358V16.6923H12.7177C12.0838 16.6923 11.6613 17.1149 11.6613 17.7487C11.6613 18.3826 12.0838 18.8052 12.7177 18.8052H13.7742V19.8617C13.7742 20.4956 14.1968 20.9181 14.8306 20.9181Z" fill="white"/>
</svg>
